<svg width="24" height="24" viewBox="0 0 24 24" fill="none" xmlns="http://www.w3.org/2000/svg">
<g clip-path="url(#clip0_1641_7426)">
<path d="M21.6732 17.37C21.0303 16.7969 20.4675 16.1399 19.9999 15.4167C19.4894 14.4184 19.1834 13.3282 19.0999 12.21V8.91667C19.1043 7.16041 18.4672 5.46298 17.3084 4.14332C16.1495 2.82365 14.5486 1.97257 12.8065 1.75V0.89C12.8065 0.653957 12.7128 0.427582 12.5459 0.260675C12.379 0.0937677 12.1526 0 11.9165 0C11.6805 0 11.4541 0.0937677 11.2872 0.260675C11.1203 0.427582 11.0265 0.653957 11.0265 0.89V1.76333C9.30004 2.00195 7.71852 2.85817 6.57489 4.1734C5.43126 5.48864 4.80302 7.17376 4.80654 8.91667V12.21C4.72304 13.3282 4.41705 14.4184 3.90654 15.4167C3.44712 16.1382 2.89333 16.7952 2.25987 17.37C2.18876 17.4325 2.13176 17.5094 2.09268 17.5956C2.0536 17.6818 2.03332 17.7753 2.0332 17.87V18.7767C2.0332 18.9535 2.10344 19.123 2.22847 19.2481C2.35349 19.3731 2.52306 19.4433 2.69987 19.4433H21.2332C21.41 19.4433 21.5796 19.3731 21.7046 19.2481C21.8296 19.123 21.8999 18.9535 21.8999 18.7767V17.87C21.8997 17.7753 21.8795 17.6818 21.8404 17.5956C21.8013 17.5094 21.7443 17.4325 21.6732 17.37ZM3.41987 18.11C4.04014 17.5108 4.58627 16.8393 5.04654 16.11C5.68961 14.9043 6.06482 13.574 6.14654 12.21V8.91667C6.1201 8.13536 6.25115 7.35672 6.5319 6.62711C6.81265 5.89751 7.23734 5.23186 7.7807 4.6698C8.32406 4.10775 8.97496 3.66078 9.69466 3.35552C10.4144 3.05025 11.1881 2.89294 11.9699 2.89294C12.7516 2.89294 13.5254 3.05025 14.2451 3.35552C14.9648 3.66078 15.6157 4.10775 16.159 4.6698C16.7024 5.23186 17.1271 5.89751 17.4078 6.62711C17.6886 7.35672 17.8196 8.13536 17.7932 8.91667V12.21C17.8749 13.574 18.2501 14.9043 18.8932 16.11C19.3535 16.8393 19.8996 17.5108 20.5199 18.11H3.41987Z" fill="black"/>
<path d="M11.9996 21.5C12.4195 21.4903 12.8225 21.3324 13.1373 21.0543C13.4521 20.7761 13.6583 20.3956 13.7196 19.98H10.2129C10.2759 20.4069 10.4918 20.7963 10.8204 21.0759C11.1491 21.3555 11.5681 21.5062 11.9996 21.5Z" fill="black"/>
</g>
<defs>
<clipPath id="clip0_1641_7426">
<rect width="24" height="24" fill="white"/>
</clipPath>
</defs>
</svg>
