<svg width="24" height="20" viewBox="0 0 24 20" fill="none" xmlns="http://www.w3.org/2000/svg">
<path d="M22 0H2C0.9 0 0 1 0 2.22222V17.7778C0 19 0.9 20 2 20H22C23.1 20 23.99 19 23.99 17.7778L24 2.22222C24 1 23.1 0 22 0ZM22.5 18.3333H1.5V1.66667H22.5V18.3333ZM19.01 16.6556L20 15L18.5 12.7778L17 12.2222C16.78 11.5222 16.5 10.7778 16.5 10C16.5 9.22222 16.78 8.47778 17 7.77778H18.5L20 5.55556L19.01 3.34444C17.6831 4.44536 16.7228 6.00476 16.28 7.77778C16.1 8.48889 16 9.23333 16 10C16 10.7667 16.1 11.5111 16.28 12.2222C16.7255 13.9939 17.6852 15.5524 19.01 16.6556ZM9 10C10.65 10 12 8.5 12 6.66667C12 4.83333 10.65 3.33333 9 3.33333C7.35 3.33333 6 4.83333 6 6.66667C6 8.5 7.35 10 9 10ZM9 4.44444C9.55 4.44444 11 5 11 6.66667C11 8.33333 9.55 8.88889 9 8.88889C8.45 8.88889 7 8.33333 7 6.66667C7 5 8.45 4.44444 9 4.44444ZM15 15.1C15 12.3222 11.03 11.1222 9 11.1222C6.97 11.1222 3 12.3222 3 15.1V16.6667H15V15.1ZM4 15.5556C4 14.4444 5 12.2222 9 12.2222C13 12.2222 14 14.4444 14 15.5556H4Z" fill="black"/>
</svg>
