<svg width="27" height="33" viewBox="0 0 27 33" fill="none" xmlns="http://www.w3.org/2000/svg">
<path fill-rule="evenodd" clip-rule="evenodd" d="M0.473633 3.69836C0.473633 2.16765 1.71452 0.926758 3.24523 0.926758H18.3534C19.1826 0.926758 19.9682 1.29797 20.4946 1.93854L25.8963 8.51085C26.3039 9.00676 26.5267 9.62876 26.5267 10.2707V29.4188C26.5267 30.9495 25.2858 32.1904 23.7551 32.1904H3.24523C1.71452 32.1904 0.473633 30.9495 0.473633 29.4188V3.69836Z" fill="url(#paint0_linear_1641_5870)"/>
<mask id="mask0_1641_5870" style="mask-type:alpha" maskUnits="userSpaceOnUse" x="0" y="0" width="27" height="33">
<path fill-rule="evenodd" clip-rule="evenodd" d="M0.473633 3.69836C0.473633 2.16765 1.71452 0.926758 3.24523 0.926758H18.3534C19.1826 0.926758 19.9682 1.29797 20.4946 1.93854L25.8963 8.51085C26.3039 9.00676 26.5267 9.62876 26.5267 10.2707V29.4188C26.5267 30.9495 25.2858 32.1904 23.7551 32.1904H3.24523C1.71452 32.1904 0.473633 30.9495 0.473633 29.4188V3.69836Z" fill="white"/>
</mask>
<g mask="url(#mask0_1641_5870)">
<g style="mix-blend-mode:multiply">
<path fill-rule="evenodd" clip-rule="evenodd" d="M31.7414 10.047H21.6096C20.0109 10.047 18.7148 8.75099 18.7148 7.15224V-2.97949L31.7414 10.047Z" fill="url(#paint1_linear_1641_5870)"/>
</g>
<path opacity="0.75" d="M5.3584 14.6049C5.3584 15.0995 5.72595 15.5083 6.20282 15.573L6.33539 15.5819H20.6646C21.2041 15.5819 21.6415 15.1445 21.6415 14.6049C21.6415 14.1103 21.274 13.7015 20.7971 13.6368L20.6646 13.6279L6.33539 13.6279C5.79581 13.6279 5.3584 14.0653 5.3584 14.6049Z" fill="white"/>
<path opacity="0.75" d="M5.3584 20.4653C5.3584 20.9599 5.72595 21.3686 6.20282 21.4333L6.33539 21.4423H20.6646C21.2041 21.4423 21.6415 21.0048 21.6415 20.4653C21.6415 19.9707 21.274 19.5619 20.7971 19.4972L20.6646 19.4883H6.33539C5.79581 19.4883 5.3584 19.9257 5.3584 20.4653Z" fill="white"/>
<path opacity="0.75" d="M5.3584 26.329C5.3584 26.8237 5.72595 27.2324 6.20282 27.2971L6.33539 27.306H20.6646C21.2041 27.306 21.6415 26.8686 21.6415 26.329C21.6415 25.8344 21.274 25.4257 20.7971 25.361L20.6646 25.3521H6.33539C5.79581 25.3521 5.3584 25.7895 5.3584 26.329Z" fill="white"/>
</g>
<defs>
<linearGradient id="paint0_linear_1641_5870" x1="-8.88766" y1="8.12404" x2="6.425" y2="28.0408" gradientUnits="userSpaceOnUse">
<stop stop-color="#6DCAFF"/>
<stop offset="1" stop-color="#00ACEF"/>
</linearGradient>
<linearGradient id="paint1_linear_1641_5870" x1="14.0342" y1="0.019376" x2="20.0319" y2="9.38067" gradientUnits="userSpaceOnUse">
<stop stop-color="#6DCAFF"/>
<stop offset="1" stop-color="#00ACEF"/>
</linearGradient>
</defs>
</svg>
